<?xml version="1.0" encoding="iso-8859-1"?>
<!-- Generator: Adobe Illustrator 19.0.0, SVG Export Plug-In . SVG Version: 6.00 Build 0)  -->
<svg version="1.1" id="Capa_1" xmlns="http://www.w3.org/2000/svg" xmlns:xlink="http://www.w3.org/1999/xlink" x="0px" y="0px"
	 viewBox="0 0 499.588 499.588" style="enable-background:new 0 0 499.588 499.588;" xml:space="preserve">
<circle style="fill:#2BA1DB;" cx="251.345" cy="249.794" r="248.242"/>
<g>
	<path style="fill:#193651;" d="M488.727,446.836H7.758c-4.655,0-7.758-3.103-7.758-7.758s3.103-7.758,7.758-7.758h480.97
		c4.655,0,7.758,3.103,7.758,7.758S493.382,446.836,488.727,446.836z"/>
	<path style="fill:#193651;" d="M477.091,443.733c-86.885-110.158-91.539-304.873-91.539-312.63c0-4.655,3.103-7.758,7.758-7.758
		s7.758,3.103,7.758,7.758c0,2.327,4.655,197.818,88.436,304.097c2.327,3.103,2.327,8.533-1.552,10.861
		C484.849,447.612,480.194,447.612,477.091,443.733z"/>
	<path style="fill:#193651;" d="M410.376,446.836c-4.655,0-7.758-3.103-7.758-7.758V269.964c0-4.655,3.103-7.758,7.758-7.758
		c4.655,0,7.758,3.103,7.758,7.758v169.115C418.133,443.733,415.03,446.836,410.376,446.836z"/>
	<path style="fill:#193651;" d="M440.63,446.836c-4.655,0-7.758-3.103-7.758-7.758v-74.473c0-4.655,3.103-7.758,7.758-7.758
		s7.758,3.103,7.758,7.758v74.473C448.388,443.733,445.285,446.836,440.63,446.836z"/>
	<path style="fill:#193651;" d="M8.533,445.285c-3.103-2.327-3.879-7.758-1.552-10.861c83.782-106.279,88.436-301.77,88.436-304.097
		c0-4.655,3.103-7.758,7.758-7.758c4.655,0,7.758,3.879,7.758,7.758c0,8.533-4.655,202.473-91.539,313.406
		C17.067,447.612,11.636,447.612,8.533,445.285z"/>
	<path style="fill:#193651;" d="M86.109,446.836c-4.655,0-7.758-3.103-7.758-7.758V269.964c0-4.655,3.103-7.758,7.758-7.758
		s7.758,3.103,7.758,7.758v169.115C93.867,443.733,89.988,446.836,86.109,446.836z"/>
	<path style="fill:#193651;" d="M55.855,446.836c-4.655,0-7.758-3.103-7.758-7.758v-74.473c0-4.655,3.103-7.758,7.758-7.758
		s7.758,3.103,7.758,7.758v74.473C63.612,443.733,60.509,446.836,55.855,446.836z"/>
</g>
<polygon style="fill:#FDBE5E;" points="103.176,130.327 393.309,130.327 415.806,76.024 81.455,76.024 "/>
<path style="fill:#193651;" d="M393.309,138.085H103.176c-3.103,0-6.206-1.552-6.982-4.655L74.473,78.352
	c-0.776-2.327-0.776-5.43,0.776-6.982c1.552-2.327,3.879-3.103,6.206-3.103h334.352c2.327,0,4.655,1.552,6.206,3.103
	c1.552,2.327,1.552,4.655,0.776,6.982l-22.497,55.079C399.515,136.533,396.412,138.085,393.309,138.085z M108.606,122.57h279.273
	l15.515-39.564H93.091L108.606,122.57z"/>
<rect x="129.552" y="130.327" style="fill:#FFFFFF;" width="236.606" height="308.752"/>
<path style="fill:#193651;" d="M366.933,446.836H129.552c-4.655,0-7.758-3.103-7.758-7.758V130.327c0-4.655,3.103-7.758,7.758-7.758
	h236.606c4.655,0,7.758,3.103,7.758,7.758v308.752C374.691,443.733,370.812,446.836,366.933,446.836z M137.309,431.321H358.4
	V138.085H137.309V431.321z"/>
<polyline style="fill:#FDBE5E;" points="366.933,300.994 366.933,130.327 129.552,130.327 129.552,300.994 "/>
<path style="fill:#193651;" d="M366.933,308.751c-4.655,0-7.758-3.103-7.758-7.758V138.085H137.309v162.133
	c0,4.655-3.103,7.758-7.758,7.758c-4.655,0-7.758-3.103-7.758-7.758V130.327c0-4.655,3.103-7.758,7.758-7.758h236.606
	c4.655,0,7.758,3.103,7.758,7.758v169.891C374.691,304.873,370.812,308.751,366.933,308.751z"/>
<path style="fill:#FFFFFF;" d="M197.042,183.855c-16.291,0-28.703,13.188-28.703,28.703v226.521h58.182V212.558
	C225.745,197.042,212.558,183.855,197.042,183.855z"/>
<path style="fill:#193651;" d="M225.745,446.836h-58.182c-4.655,0-7.758-3.103-7.758-7.758V212.558
	c0-20.17,16.291-36.461,36.461-36.461s36.461,16.291,36.461,36.461v226.521C233.503,443.733,230.4,446.836,225.745,446.836z
	 M175.321,431.321h42.667V212.558c0-11.636-9.309-20.945-20.945-20.945c-11.636,0-20.945,9.309-20.945,20.945v218.764H175.321z"/>
<path style="fill:#FFFFFF;" d="M300.218,183.855L300.218,183.855c-16.291,0-28.703,13.188-28.703,28.703v226.521h58.182V212.558
	C328.921,197.042,316.509,183.855,300.218,183.855z"/>
<g>
	<path style="fill:#193651;" d="M328.921,446.836h-58.182c-4.655,0-7.758-3.103-7.758-7.758V212.558
		c0-20.17,16.291-36.461,36.461-36.461c20.17,0,36.461,16.291,36.461,36.461v226.521
		C336.679,443.733,333.576,446.836,328.921,446.836z M278.497,431.321h42.667V212.558c0-11.636-9.309-20.945-20.945-20.945
		c-11.636,0-20.945,9.309-20.945,20.945v218.764H278.497z"/>
	<rect x="179.2" y="95.418" style="fill:#193651;" width="15.515" height="15.515"/>
	<rect x="260.655" y="95.418" style="fill:#193651;" width="15.515" height="15.515"/>
	<rect x="301.77" y="95.418" style="fill:#193651;" width="15.515" height="15.515"/>
	<rect x="138.861" y="95.418" style="fill:#193651;" width="15.515" height="15.515"/>
	<rect x="220.315" y="95.418" style="fill:#193651;" width="15.515" height="15.515"/>
	<rect x="342.885" y="95.418" style="fill:#193651;" width="15.515" height="15.515"/>
</g>
<g>
</g>
<g>
</g>
<g>
</g>
<g>
</g>
<g>
</g>
<g>
</g>
<g>
</g>
<g>
</g>
<g>
</g>
<g>
</g>
<g>
</g>
<g>
</g>
<g>
</g>
<g>
</g>
<g>
</g>
</svg>
