<svg enable-background="new 0 0 59 57" height="512" viewBox="0 0 59 57" width="512" xmlns="http://www.w3.org/2000/svg"><path d="m42.229 9.151-.182-.151-4.078 3.78c-1.942 8.22-15.99 11.039-13.942 18.22.026.091 10.975 4.909 11 5 1.395 5.041 18.118 5.511 17.093 10.64l-.073.36h5c1.868-14.322-3.723-28.603-14.818-37.849z" fill="#dc691d"/><path d="m50.684 31.153c-.025-.091-.051-.182-.077-.272-2.047-7.181-6.664-13.621-12.638-18.101l-18.375 17.03c-.598-1.074-1.73-1.81-3.047-1.81-1.933 0-3.5 1.567-3.5 3.5 0 1.221.627 2.293 1.574 2.919l-13.574 12.581h14v1c0 1.1.9 2 2 2s2-.9 2-2v5c0 1.65 1.35 3 3 3s3-1.35 3-3v-4c0 1.65 1.35 3 3 3s3-1.35 3-3v-2h21l.072-.36c1.026-5.129-.04-10.446-1.435-15.487z" fill="#f7e6a1"/><path d="m28.047 27c2.761 0 5-2.239 5-5 0-1.319-.521-2.509-1.355-3.403l-7.313 6.778c.914.993 2.213 1.625 3.668 1.625z" fill="#ebba16"/><path d="m47.047 37c0-1.657-1.791-3-4-3s-4 1.343-4 3c0 .849.476 1.609 1.234 2.152.498.357.766.955.766 1.568v.158c0 .997.675 1.927 1.658 2.093 1.249.21 2.342-.759 2.342-1.971v-.28c0-.613.268-1.212.766-1.568.759-.543 1.234-1.303 1.234-2.152z" fill="#23a24d"/><path d="m30.047 38c1.657 0 3-1.791 3-4s-1.343-4-3-4c-.849 0-1.609.476-2.152 1.234-.356.498-.955.766-1.568.766h-.158c-.997 0-1.927.675-2.093 1.658-.21 1.249.759 2.342 1.971 2.342h.28c.613 0 1.212.268 1.568.766.543.758 1.303 1.234 2.152 1.234z" fill="#6b4842"/><circle cx="16.547" cy="31.5" fill="#cb465f" r="3.5"/><path d="m3.879 21.879h4.243v4.243h-4.243z" fill="#ebba16" transform="matrix(.707 -.707 .707 .707 -15.213 11.272)"/><path d="m50.879 3.879h4.243v4.243h-4.243z" fill="#ebba16" transform="matrix(.707 -.707 .707 .707 11.281 39.234)"/><g fill="#4d007e"><path d="m18.047 45c-2.206 0-4-1.794-4-4 0-.553.448-1 1-1s1 .447 1 1c0 1.103.897 2 2 2s2-.897 2-2-.897-2-2-2c-.552 0-1-.447-1-1s.448-1 1-1c2.206 0 4 1.794 4 4s-1.794 4-4 4z"/><path d="m40.047 25c-.256 0-.512-.098-.707-.293-.391-.391-.391-1.023 0-1.414l2-2c.391-.391 1.023-.391 1.414 0s.391 1.023 0 1.414l-2 2c-.195.195-.451.293-.707.293z"/><path d="m28.047 28c-1.683 0-3.247-.691-4.403-1.947-.374-.405-.349-1.036.056-1.411l7.313-6.778c.403-.375 1.034-.354 1.411.051 1.047 1.121 1.624 2.572 1.624 4.086-.001 3.308-2.692 5.999-6.001 5.999zm-2.169-2.65c.642.424 1.387.65 2.169.65 2.206 0 4-1.794 4-4 0-.672-.172-1.326-.496-1.909z"/><path d="m43.043 44c-.167 0-.335-.014-.503-.042-1.421-.24-2.492-1.563-2.492-3.079v-.158c0-.312-.133-.602-.348-.755-1.05-.752-1.652-1.833-1.652-2.966 0-2.206 2.243-4 5-4s5 1.794 5 4c0 1.133-.602 2.214-1.652 2.966-.215.153-.348.442-.348.755v.279c0 .883-.389 1.718-1.066 2.29-.547.463-1.233.71-1.939.71zm.004-9c-1.626 0-3 .916-3 2 0 .657.511 1.121.816 1.339.741.531 1.184 1.421 1.184 2.382v.158c0 .543.362 1.028.825 1.106.403.071.685-.109.817-.222.228-.192.358-.471.358-.764v-.279c0-.961.443-1.852 1.185-2.382.304-.218.815-.682.815-1.339 0-1.083-1.374-1.999-3-1.999z"/><path d="m30.047 39c-1.133 0-2.213-.602-2.965-1.651-.154-.216-.443-.349-.755-.349h-.28c-.882 0-1.717-.389-2.29-1.065-.571-.676-.814-1.565-.667-2.442.239-1.422 1.562-2.493 3.079-2.493h.158c.312 0 .601-.133.754-.348.753-1.05 1.834-1.652 2.966-1.652 2.206 0 4 2.243 4 5s-1.794 5-4 5zm-3.878-6c-.543 0-1.029.362-1.106.823-.068.404.11.687.222.819.191.228.469.358.762.358h.28c.961 0 1.852.443 2.382 1.186.217.303.682.814 1.338.814 1.084 0 2-1.374 2-3s-.916-3-2-3c-.657 0-1.121.511-1.339.815-.529.742-1.42 1.185-2.381 1.185z"/><path d="m22.047 57c-2.206 0-4-1.794-4-4v-2.171c-.313.11-.649.171-1 .171-1.654 0-3-1.346-3-3h-13c-.412 0-.781-.252-.931-.635s-.05-.819.251-1.099l12.769-11.834c-.695-.806-1.089-1.841-1.089-2.933 0-2.481 2.019-4.5 4.5-4.5 1.203 0 2.341.49 3.173 1.329l17.57-16.282c.355-.328.894-.355 1.28-.066 6.307 4.73 10.923 11.346 13 18.627l.079.28c1.333 4.814 2.547 10.475 1.452 15.949l-.071.359c-.095.468-.506.805-.983.805h-20v1c0 2.206-1.794 4-4 4-.728 0-1.411-.195-2-.537v.537c0 2.206-1.794 4-4 4zm-2-9v5c0 1.103.897 2 2 2s2-.897 2-2v-4c0-.553.448-1 1-1s1 .447 1 1c0 1.103.897 2 2 2s2-.897 2-2v-2c0-.553.448-1 1-1h20.174c.862-4.933-.269-10.126-1.502-14.58 0-.001 0-.001 0-.002l-.073-.261c-1.885-6.61-5.995-12.642-11.617-17.07l-17.755 16.456c-.225.209-.535.305-.837.254-.303-.048-.567-.233-.717-.501-.444-.8-1.277-1.296-2.173-1.296-1.378 0-2.5 1.121-2.5 2.5 0 .84.421 1.619 1.125 2.085.256.169.42.446.445.752.025.307-.092.606-.317.815l-11.703 10.848h11.45c.552 0 1 .447 1 1v1c0 .552.449 1 1 1s1-.448 1-1c0-.553.448-1 1-1s1 .447 1 1z"/><path d="m16.547 36c-2.481 0-4.5-2.019-4.5-4.5s2.019-4.5 4.5-4.5 4.5 2.019 4.5 4.5-2.018 4.5-4.5 4.5zm0-7c-1.378 0-2.5 1.121-2.5 2.5s1.122 2.5 2.5 2.5 2.5-1.121 2.5-2.5-1.121-2.5-2.5-2.5z"/><path d="m57.047 48h-5c-.299 0-.583-.134-.773-.365-.19-.232-.266-.536-.208-.83l.072-.36c1.013-5.063-.148-10.437-1.418-15.024l-.074-.263c-1.958-6.866-6.317-13.108-12.277-17.578-.237-.178-.383-.452-.398-.748-.016-.296.102-.584.319-.785l4.078-3.779c.37-.343.935-.356 1.321-.034l.181.151c11.421 9.518 17.092 24.003 15.169 38.745-.065.497-.489.87-.992.87zm-3.798-2h2.911c1.481-13.545-3.739-26.775-14.082-35.665l-2.565 2.377c5.823 4.669 10.084 10.981 12.055 17.895l.079.282c1.266 4.568 2.424 9.899 1.602 15.111z"/><path d="m6 28c-.256 0-.512-.098-.707-.293l-3-3c-.391-.391-.391-1.023 0-1.414l3-3c.391-.391 1.023-.391 1.414 0l3 3c.391.391.391 1.023 0 1.414l-3 3c-.195.195-.451.293-.707.293zm-1.586-4 1.586 1.586 1.586-1.586-1.586-1.586z"/><path d="m6 22c-.552 0-1-.447-1-1v-2c0-.553.448-1 1-1s1 .447 1 1v2c0 .553-.448 1-1 1z"/><path d="m11 25h-2c-.552 0-1-.447-1-1s.448-1 1-1h2c.552 0 1 .447 1 1s-.448 1-1 1z"/><path d="m6 30c-.552 0-1-.447-1-1v-2c0-.553.448-1 1-1s1 .447 1 1v2c0 .553-.448 1-1 1z"/><path d="m3 25h-2c-.552 0-1-.447-1-1s.448-1 1-1h2c.552 0 1 .447 1 1s-.448 1-1 1z"/><path d="m53 10c-.256 0-.512-.098-.707-.293l-3-3c-.391-.391-.391-1.023 0-1.414l3-3c.391-.391 1.023-.391 1.414 0l3 3c.391.391.391 1.023 0 1.414l-3 3c-.195.195-.451.293-.707.293zm-1.586-4 1.586 1.586 1.586-1.586-1.586-1.586z"/><path d="m53 4c-.552 0-1-.447-1-1v-2c0-.553.448-1 1-1s1 .447 1 1v2c0 .553-.448 1-1 1z"/><path d="m58 7h-2c-.552 0-1-.447-1-1s.448-1 1-1h2c.552 0 1 .447 1 1s-.448 1-1 1z"/><path d="m53 12c-.552 0-1-.447-1-1v-2c0-.553.448-1 1-1s1 .447 1 1v2c0 .553-.448 1-1 1z"/><path d="m50 7h-2c-.552 0-1-.447-1-1s.448-1 1-1h2c.552 0 1 .447 1 1s-.448 1-1 1z"/></g></svg>